# xmcd
#
# Track frame offsets:
#	150
#	18208
#	36185
#	70005
#
# Disc length: 1346 seconds
#
# Revision: 1
# Processed by: cddbd v1.5.1PL0 Copyright (c) Steve Scherf et al.
# Submitted via: audiograbber 1.83.01
#
DISCID=27054004
DTITLE=Mezzoforte featr. Juliet Edwards - Gardenparty (Remix '94) (Maxi)
DYEAR=1994
DGENRE=Pop
TTITLE0=Gardenparty - Mix '94 (Daytime Radio Version)
TTITLE1=Gardenparty - Mix '94 (Nitetime Radio Version)
TTITLE2=Gardenparty - Mix '94 (12" Version)
TTITLE3=Gardenparty - Mix '94 (F&F Dreamteam Club Mix)
EXTD=
EXTT0=
EXTT1=
EXTT2=
EXTT3=
PLAYORDER=
